inDegrees=yes
name=ik_lifting_orientations
DataType=double
version=3
OpenSimVersion=4.5-2024-01-10-34fd6af
endheader
time	pelvis_tilt	pelvis_list	pelvis_rotation	pelvis_tx	pelvis_ty	pelvis_tz	hip_flexion_r	hip_adduction_r	hip_rotation_r	knee_angle_r	knee_angle_r_beta	ankle_angle_r	subtalar_angle_r	mtp_angle_r	hip_flexion_l	hip_adduction_l	hip_rotation_l	knee_angle_l	knee_angle_l_beta	ankle_angle_l	subtalar_angle_l	mtp_angle_l	lumbar_extension	lumbar_bending	lumbar_rotation	arm_flex_r	arm_add_r	arm_rot_r	elbow_flex_r	pro_sup_r	wrist_flex_r	wrist_dev_r	arm_flex_l	arm_add_l	arm_rot_l	elbow_flex_l	pro_sup_l	wrist_flex_l	wrist_dev_l
2.62	1.24148878966246	-8.760027496214503	-92.88312765361891	0	0.9399999998679526	0	45.03755675207923	-10.00639356532388	0	60.04044253538066	1.047903406596844	-5.000804590216828	0	0	45.03755675207923	-10.00639356532388	0	60.04044253538066	1.047903406596844	-5.000804590216828	0	0	-8.245989235941972	-1.337983790381792	15.86313721878586	68.81753547813156	-22.27828802758565	37.57448007697138	69.4004625168327	0.6324817771538367	0	0	0	-13.11552111653686	0	89.38078478927358	0.6324817771538367	0	0
2.63	1.282694048354279	-8.739679941831081	-93.39282103548172	0	0.9399999998679526	0	45.03754442701867	-10.00638632065089	0	60.04043205867996	1.047903223743923	-5.000803403572567	0	0	45.03754442701867	-10.00638632065089	0	60.04043205867996	1.047903223743923	-5.000803403572567	0	0	-7.751747504548208	-1.415736028980074	17.04552689137913	69.17556915556187	-22.19350069510367	37.47007570419897	65.01644224780183	0.6323368239514945	0	0	0	-13.11583990790925	0	89.38092666143382	0.6323368239514945	0	0
2.64	1.238892832367827	-8.572924330093706	-93.31744299352636	0	0.9399999998679526	0	45.03752306682981	-10.00637372076745	0	60.04041396083407	1.047902907876924	-5.000801338683327	0	0	45.03752306682981	-10.00637372076745	0	60.04041396083407	1.047902907876924	-5.000801338683327	0	0	-7.185485012985683	-1.321644326357625	17.45244233795696	69.63165394900803	-21.91053798200605	37.47392664229004	61.19203841840029	0.6320859067085716	0	0	0	-13.1163911854013	0	89.38117224532387	0.6320859067085716	0	0
2.65	1.171081536620669	-8.322491572954782	-92.89054135553171	0	0.9399999998679526	0	45.03750824326719	-10.0063650904452	0	60.04040127701054	1.047902686502442	-5.000799928159662	0	0	45.03750824326719	-10.0063650904452	0	60.04040127701054	1.047902686502442	-5.000799928159662	0	0	-6.434930802093731	-1.167886056593781	17.66405321504345	69.79560054998814	-21.77674079516249	37.45657383948667	58.20136445591235	0.6319110940883693	0	0	0	-13.11677652282481	0	89.38134334222767	0.6319110940883693	0	0
2.66	1.109593975911918	-8.012512900388419	-92.60263660565968	0	0.9399999998679526	0	45.03749279223678	-10.00635609282957	0	60.04038806853579	1.047902455971068	-5.000798457905812	0	0	45.03749279223678	-10.00635609282957	0	60.04038806853579	1.047902455971068	-5.000798457905812	0	0	-5.693612548934222	-1.044052711458699	17.82926673026613	70.0467494278123	-21.40570359831021	37.52152733747421	55.16073807679957	0.6317289300726584	0	0	0	-13.11717796201586	0	89.38152163427007	0.6317289300726584	0	0
2.67	1.020876625019925	-7.685526925500558	-92.30837204634743	0	0.9399999998679526	0	45.0374843655451	-10.00635123857396	0	60.04038081131769	1.047902329308718	-5.000797666635271	0	0	45.0374843655451	-10.00635123857396	0	60.04038081131769	1.047902329308718	-5.000797666635271	0	0	-5.048436362486595	-0.8899082064603415	17.89186329049493	70.37048471478205	-20.96632197889804	37.6197807491514	53.25321325229681	0.6316292838886158	0	0	0	-13.11739809564158	0	89.3816191624324	0.6316292838886158	0	0
2.68	0.9974563608054061	-7.51713239048978	-92.32026193917734	0	0.9399999998679526	0	45.03747305304296	-10.00634466880778	0	60.04037113028424	1.047902160342809	-5.000796594036356	0	0	45.03747305304296	-10.00634466880778	0	60.04037113028424	1.047902160342809	-5.000796594036356	0	0	-4.279557269859114	-0.8041391797766024	18.19085209371254	70.16942140912732	-20.86251748736466	37.61282795155475	51.34933239685493	0.6314958387412641	0	0	0	-13.11769229476753	0	89.3817497711467	0.6314958387412641	0	0
2.69	1.002041117533611	-7.337250182821682	-92.41532841093303	0	0.9399999998679526	0	45.0374581333617	-10.00633607116029	0	60.04035828899902	1.047901936220102	-5.000795192641283	0	0	45.0374581333617	-10.00633607116029	0	60.04035828899902	1.047901936220102	-5.000795192641283	0	0	-3.653943487213692	-0.7722131287766575	18.28091981060369	70.24006447817069	-20.15363734635903	37.84651847243229	49.47042839441085	0.6313194388495391	0	0	0	-13.1180819424471	0	89.38192242158433	0.6313194388495391	0	0
2.7	0.9449647123987067	-6.949615590936941	-92.31165335344133	0	0.9399999998679526	0	45.03744588814487	-10.00632888671147	0	60.04034791003816	1.047901755073062	-5.000794017941169	0	0	45.03744588814487	-10.00632888671147	0	60.04034791003816	1.047901755073062	-5.000794017941169	0	0	-2.895132004109763	-0.6610721137339278	18.19287235420747	70.22291017982874	-19.63800262904284	38.22724181008941	47.82358480930971	0.631175503283685	0	0	0	-13.11839829332912	0	89.3820632977389	0.631175503283685	0	0
2.71	0.9183971784929659	-6.524407239325019	-92.50348810406348	0	0.9399999998679526	0	45.03743251757746	-10.00632104012394	0	60.04033658638397	1.047901557438013	-5.00079273517488	0	0	45.03743251757746	-10.00632104012394	0	60.04033658638397	1.047901557438013	-5.00079273517488	0	0	-2.099556010356003	-0.6154702152742777	18.12278806949416	70.09624688026278	-18.92750315892927	38.64197499170712	46.6915761656353	0.6310183770106874	0	0	0	-13.11874355706162	0	89.38221708422654	0.6310183770106874	0	0
2.72	0.9325209251572846	-6.215150048542776	-93.19084695714287	0	0.9399999998679526	0	45.03742415183804	-10.0063161947967	0	60.04032943319316	1.047901432591281	-5.000791945285616	0	0	45.03742415183804	-10.0063161947967	0	60.04032943319316	1.047901432591281	-5.000791945285616	0	0	-1.358547016176038	-0.6229922984030298	18.71987091119687	69.95351468540709	-18.49455825483996	38.82507984182796	45.48727479854661	0.6309196913760549	0	0	0	-13.11896109490603	0	89.38231367225643	0.6309196913760549	0	0
2.73	0.9050619226693021	-5.830465936244373	-93.13530683384957	0	0.9399999998679526	0	45.03741295803502	-10.00630958724147	0	60.04032000610289	1.047901268057517	-5.000790864190848	0	0	45.03741295803502	-10.00630958724147	0	60.04032000610289	1.047901268057517	-5.000790864190848	0	0	-0.9272863250744044	-0.6150501584660357	18.46461709476209	70.06134479615052	-18.47244543387382	38.65118094368642	44.11459781112914	0.6307884147243508	0	0	0	-13.11924904461451	0	89.38244215856746	0.6307884147243508	0	0
2.74	0.9017437386930068	-5.447831541600347	-93.32615628257543	0	0.9399999998679526	0	45.03740353046538	-10.00630403336725	0	60.04031205754664	1.04790112932904	-5.000789955986102	0	0	45.03740353046538	-10.00630403336725	0	60.04031205754664	1.04790112932904	-5.000789955986102	0	0	-0.5099268895137556	-0.6275272785557078	18.47853526834833	70.19561678381905	-18.41567066227705	38.39966791400099	42.72371350289794	0.6306777971440054	0	0	0	-13.11949177682849	0	89.38255042492447	0.6306777971440054	0	0
2.75	0.911703195517483	-5.131481184189734	-93.50646979544833	0	0.9399999998679526	0	45.03739616164403	-10.00629970227374	0	60.04030583575778	1.047901020738339	-5.000789248143047	0	0	45.03739616164403	-10.00629970227374	0	60.04030583575778	1.047901020738339	-5.000789248143047	0	0	-0.1923125002850505	-0.6730068136754142	18.29801987574094	70.30003671402454	-18.19616914272398	38.611540405096	42.28623719471408	0.6305912830580425	0	0	0	-13.11968171317801	0	89.3826351001171	0.6305912830580425	0	0
2.76	0.9567716238873373	-4.816373659098769	-93.83189352928292	0	0.9399999998679526	0	45.03738769624422	-10.00629472950778	0	60.04029868750309	1.047900895977759	-5.000788435619436	0	0	45.03738769624422	-10.00629472950778	0	60.04029868750309	1.047900895977759	-5.000788435619436	0	0	0.1985590300161917	-0.6984808775228172	18.44364673916077	70.35948761579121	-18.06674421510615	38.81298113040015	41.05451408246484	0.6304918868135988	0	0	0	-13.11989994235079	0	89.3827323836525	0.6304918868135988	0	0
2.77	1.015954424749404	-4.50992134335584	-94.13274818118292	0	0.9399999998679526	0	45.03737140526872	-10.00628512295032	0	60.04028498196755	1.047900656771038	-5.000786865102543	0	0	45.03737140526872	-10.00628512295032	0	60.04028498196755	1.047900656771038	-5.000786865102543	0	0	0.4992194981204878	-0.7652936043985348	18.34853691116173	70.56206288435446	-17.88414441638356	39.14991247070125	38.81973216469805	0.6303008650410864	0	0	0	-13.12031884678508	0	89.3829193451768	0.6303008650410864	0	0
2.78	1.039875851773316	-4.504705057702194	-94.52068042889417	0	0.9399999998679526	0	45.03736139401489	-10.00627923548376	0	60.0402765461608	1.047900509538435	-5.000785903290726	0	0	45.03736139401489	-10.00627923548376	0	60.0402765461608	1.047900509538435	-5.000785903290726	0	0	0.5872279374396481	-0.7920551013980095	18.5546605539918	70.3996889901518	-17.93633971902137	39.54615317128657	37.802455404428	0.6301833961267153	0	0	0	-13.12057659691544	0	89.38303431724002	0.6301833961267153	0	0
2.79	1.099995171335058	-4.392347603981726	-95.07950619004492	0	0.9399999998679526	0	45.0373532642406	-10.00627448427334	0	60.04026966479992	1.047900389436031	-5.000785128165864	0	0	45.0373532642406	-10.00627448427334	0	60.04026966479992	1.047900389436031	-5.000785128165864	0	0	0.7306760931716411	-0.8370537783282224	19.01899588178984	70.55770911414777	-17.68530833758163	39.64574026385547	36.32596495918317	0.6300878320198011	0	0	0	-13.12078660014652	0	89.38312785009181	0.6300878320198011	0	0
2.8	1.185561373506419	-4.313325151972316	-95.59674602885968	0	0.9399999998679526	0	45.03733765486958	-10.00626532462275	0	60.04025650245412	1.047900159709759	-5.000783632922822	0	0	45.03733765486958	-10.00626532462275	0	60.04025650245412	1.047900159709759	-5.000783632922822	0	0	0.6756447142716547	-0.9276533193954413	19.14155620728119	71.30707704052928	-16.96546838642183	39.68947441826075	34.66086590445357	0.6299046029612354	0	0	0	-13.12118876058002	0	89.3833071845399	0.6299046029612354	0	0
2.81	1.159523309670356	-4.126552902137277	-95.60036127786364	0	0.9399999998679526	0	45.03731902724655	-10.0062544242762	0	60.04024077385538	1.047899885193925	-5.000781854996418	0	0	45.03731902724655	-10.0062544242762	0	60.04024077385538	1.047899885193925	-5.000781854996418	0	0	0.7281301992042649	-0.8824848443215673	18.75765183634035	72.27808590638855	-15.94040603291488	39.63848538498668	32.71226305342326	0.6296858071512718	0	0	0	-13.121669222733	0	89.38352132975331	0.6296858071512718	0	0
2.82	1.08695930979113	-3.880315490819795	-95.1756613822733	0	0.9399999998679526	0	45.03730056821251	-10.00624381070207	0	60.040224982879	1.047899609589395	-5.000780130232738	0	0	45.03730056821251	-10.00624381070207	0	60.040224982879	1.047899609589395	-5.000780130232738	0	0	0.6488086646244421	-0.814888334471197	17.51008729807733	73.46472937491268	-14.4170404507715	40.11082585719646	30.59718663585144	0.6294678680776334	0	0	0	-13.12214988665607	0	89.3837346364412	0.6294678680776334	0	0
2.83	0.9440364328116266	-3.560029338728137	-94.38483810126554	0	0.9399999998679526	0	45.03728697719226	-10.00623599714435	0	60.04021336946541	1.04789940689709	-5.000778861017036	0	0	45.03728697719226	-10.00623599714435	0	60.04021336946541	1.04789940689709	-5.000778861017036	0	0	0.4071182072089147	-0.7314060412158537	15.52993296834891	74.81677142649329	-12.50829362388041	40.88336717618374	28.50010740880423	0.6293074539882912	0	0	0	-13.1225035624831	0	89.38389164086239	0.6293074539882912	0	0
2.84	0.7970989183285031	-3.267798380503399	-93.79278512318666	0	0.9399999998679526	0	45.0372731767001	-10.00622797581849	0	60.04020168047894	1.04789920288579	-5.000777555350172	0	0	45.0372731767001	-10.00622797581849	0	60.04020168047894	1.04789920288579	-5.000777555350172	0	0	0.2386264195573773	-0.6386748780066734	14.09266086600354	75.95488900407474	-10.81039642323827	41.8808913712821	26.84584806714929	0.6291451152229347	0	0	0	-13.12286046463876	0	89.38405052904962	0.6291451152229347	0	0
2.85	0.7024966067120754	-2.88921769961342	-93.38296427308839	0	0.9399999998679526	0	45.03726154794003	-10.00622123626923	0	60.04019181359772	1.047899030676226	-5.000776459131042	0	0	45.03726154794003	-10.00622123626923	0	60.04019181359772	1.047899030676226	-5.000776459131042	0	0	0.4178003283331955	-0.5633795804157663	13.57500223978795	76.47586736349632	-10.40340784892095	42.20239189384283	26.14830020969159	0.6290082202664656	0	0	0	-13.12316161408229	0	89.38418451424684	0.6290082202664656	0	0
